<?xml version="1.0" encoding="UTF-8"?>
<svg width="24px" height="24px" viewBox="0 0 24 24" version="1.1" xmlns="http://www.w3.org/2000/svg" xmlns:xlink="http://www.w3.org/1999/xlink">
    <title>编组 39备份 2</title>
    <g id="页面-1" stroke="none" stroke-width="1" fill="none" fill-rule="evenodd">
        <g id="图标" transform="translate(-21.000000, -12.000000)">
            <g id="编组-39备份-2" transform="translate(21.000000, 12.000000)">
                <rect id="矩形" x="0" y="0" width="24" height="24"></rect>
                <g id="编组-169" transform="translate(0.750000, 0.750000)" fill-rule="nonzero">
                    <path d="M17.5,0 C19.3556768,0 20.8740541,1.44415031 20.9925552,3.26987404 L21,3.5 L21,10.6952004 C21,11.0817997 20.6865993,11.3952004 20.3,11.3952004 C19.9563562,11.3952004 19.6705483,11.1475752 19.6112779,10.8210263 L19.6,10.6952004 L19.6,3.5 C19.6,2.40842544 18.7671567,1.51137185 17.702244,1.40961321 L17.5,1.4 L3.5,1.4 C2.40842544,1.4 1.51137185,2.23284332 1.40961321,3.29775599 L1.4,3.5 L1.4,17.5 C1.4,18.5915746 2.23284332,19.4886281 3.29775599,19.5903868 L3.5,19.6 L11.9,19.6 C12.2865993,19.6 12.6,19.9134007 12.6,20.3 C12.6,20.6436438 12.3523748,20.9294517 12.0258259,20.9887221 L11.9,21 L3.5,21 C1.64432324,21 0.125945859,19.5558497 0.00744475155,17.730126 L0,17.5 L0,3.5 C0,1.64432324 1.44415031,0.125945859 3.26987404,0.00744475155 L3.5,0 L17.5,0 Z" id="路径" fill="#0171F6"></path>
                    <path d="M18.4853035,13.5 C18.7235486,13.5 18.9216965,13.7210579 18.9627881,14.0125718 L18.970607,14.124898 L18.970607,18.9778561 L20.1914872,17.5747731 C20.3692099,17.3704659 20.6313552,17.3654457 20.8127824,17.547667 L20.8767115,17.6247534 C21.035379,17.8535969 21.0392778,18.1911467 20.8977624,18.4247604 L20.8378962,18.5070782 L18.808508,20.8400309 C18.5166173,21.1755838 18.0652889,20.9489561 18.0064091,20.4783426 L18,20.3738783 L18,14.124898 C18,13.7797764 18.2172778,13.5 18.4853035,13.5 Z" id="路径-68" fill="#0171F6"></path>
                    <path d="M13.9853035,13.5 C14.2235486,13.5 14.4216965,13.7210579 14.4627881,14.0125718 L14.470607,14.124898 L14.470607,18.9778561 L15.6914872,17.5747731 C15.8692099,17.3704659 16.1313552,17.3654457 16.3127824,17.547667 L16.3767115,17.6247534 C16.535379,17.8535969 16.5392778,18.1911467 16.3977624,18.4247604 L16.3378962,18.5070782 L14.308508,20.8400309 C14.0166173,21.1755838 13.5652889,20.9489561 13.5064091,20.4783426 L13.5,20.3738783 L13.5,14.124898 C13.5,13.7797764 13.7172778,13.5 13.9853035,13.5 Z" id="路径-68" fill="#0171F6" transform="translate(15.000000, 17.250000) scale(-1, -1) translate(-15.000000, -17.250000) "></path>
                    <path d="M13.6144471,4.88952777 C13.9157524,5.2089811 13.9157524,5.72701245 13.6144471,6.04660519 L11.818,7.952 L13.4823339,7.9527511 C13.9084492,7.9527511 14.2537046,8.31910087 14.2537046,8.77091963 C14.2537046,9.22275832 13.908468,9.58910809 13.4823527,9.58910809 L11.498,9.589 L11.498,10.68 L13.4823339,10.6800128 C13.9084492,10.6800128 14.2537046,11.0463426 14.2537046,11.4981813 C14.2537046,11.9499801 13.908468,12.3163498 13.4823527,12.3163498 L11.498,12.316 L11.4982137,13.7699601 C11.4982137,14.2218187 11.1529583,14.5881684 10.7268429,14.5881684 C10.3007463,14.5881684 9.95549095,14.2218386 9.95549095,13.76998 L9.955,12.316 L7.97135197,12.3163498 C7.54525539,12.3163498 7.2,11.9500001 7.2,11.4981813 C7.2,11.0463426 7.54525539,10.6800128 7.97135197,10.6800128 L9.955,10.68 L9.955,9.589 L7.97135197,9.58910809 C7.54525539,9.58910809 7.2,9.22275832 7.2,8.77091963 C7.2,8.31910087 7.54525539,7.9527511 7.97135197,7.9527511 L9.635,7.952 L7.83878817,6.04700346 C7.53746415,5.72741074 7.53746415,5.20937937 7.83878817,4.88990613 C8.13958653,4.57031341 8.62821959,4.5704528 8.92954363,4.88978665 L10.726,6.795 L12.5236916,4.88966716 C12.82449,4.57005453 13.3131231,4.57021383 13.6144471,4.88952777 Z" id="合并形状" fill="#FF9347"></path>
                </g>
            </g>
        </g>
    </g>
</svg>