<?xml version="1.0" encoding="UTF-8"?>
<svg width="24px" height="24px" viewBox="0 0 24 24" version="1.1" xmlns="http://www.w3.org/2000/svg" xmlns:xlink="http://www.w3.org/1999/xlink">
    <title>ic_cancel</title>
    <defs>
        <path d="M12,1 C18.0751322,1 23,5.92486775 23,12 C23,18.0751322 18.0751322,23 12,23 C5.92486775,23 1,18.0751322 1,12 C1,5.92486775 5.92486775,1 12,1 Z M8.42027192,7.35961175 C8.34704862,7.28638844 8.22833018,7.28638844 8.15510688,7.35961175 L7.35961175,8.15510688 C7.28638844,8.22833018 7.28638844,8.34704862 7.35961175,8.42027192 L10.9393398,12 L7.35961175,15.5797281 C7.28638844,15.6529514 7.28638844,15.7716698 7.35961175,15.8448931 L8.15510688,16.6403883 C8.22833018,16.7136116 8.34704862,16.7136116 8.42027192,16.6403883 L16.6403883,8.42027192 C16.7136116,8.34704862 16.7136116,8.22833018 16.6403883,8.15510688 L15.8448931,7.35961175 C15.7716698,7.28638844 15.6529514,7.28638844 15.5797281,7.35961175 L12,10.9393398 Z M13.7670598,12.7063997 L12.7063997,13.7670598 L15.5797281,16.6403883 C15.6529514,16.7136116 15.7716698,16.7136116 15.8448931,16.6403883 L16.6403883,15.8448931 C16.7136116,15.7716698 16.7136116,15.6529514 16.6403883,15.5797281 L13.7670598,12.7063997 Z" id="path-1"></path>
    </defs>
    <g id="ic_cancel" stroke="none" stroke-width="1" fill="none" fill-rule="evenodd">
        <mask id="mask-2" fill="white">
            <use xlink:href="#path-1"></use>
        </mask>
        <use id="形状结合" fill-opacity="0.4" fill="#182431" fill-rule="nonzero" xlink:href="#path-1"></use>
    </g>
</svg>