<?xml version="1.0" encoding="UTF-8"?>
<svg width="24px" height="24px" viewBox="0 0 24 24" version="1.1" xmlns="http://www.w3.org/2000/svg" xmlns:xlink="http://www.w3.org/1999/xlink">
    <title>ic_cancel2</title>
    <defs>
        <path d="M11.25,11.3921356 L11.25,2.89213562 C11.25,2.47792206 11.5857864,2.14213562 12,2.14213562 C12.4142136,2.14213562 12.75,2.47792206 12.75,2.89213562 L12.75,11.3921356 L21.25,11.3921356 C21.6642136,11.3921356 22,11.7279221 22,12.1421356 C22,12.5563492 21.6642136,12.8921356 21.25,12.8921356 L12.75,12.8921356 L12.75,21.3921356 C12.75,21.8063492 12.4142136,22.1421356 12,22.1421356 C11.5857864,22.1421356 11.25,21.8063492 11.25,21.3921356 L11.25,12.8921356 L2.75,12.8921356 C2.33578644,12.8921356 2,12.5563492 2,12.1421356 C2,11.7279221 2.33578644,11.3921356 2.75,11.3921356 L11.25,11.3921356 Z" id="path-1"></path>
    </defs>
    <g id="ic_cancel2" stroke="none" stroke-width="1" fill="none" fill-rule="evenodd">
        <mask id="mask-2" fill="white">
            <use xlink:href="#path-1" transform="translate(12.000000, 12.142136) rotate(45.000000) translate(-12.000000, -12.142136) "></use>
        </mask>
        <use id="路径" fill="#182431" fill-rule="nonzero" transform="translate(12.000000, 12.142136) rotate(45.000000) translate(-12.000000, -12.142136) " xlink:href="#path-1"></use>
    </g>
</svg>