<?xml version="1.0" encoding="UTF-8"?>
<svg width="24px" height="24px" viewBox="0 0 24 24" version="1.1" xmlns="http://www.w3.org/2000/svg" xmlns:xlink="http://www.w3.org/1999/xlink">
    <title>ic_paste</title>
    <g id="ic_paste" stroke="none" stroke-width="1" fill="none" fill-rule="evenodd">
        <path d="M3.5,18.397 L3.5,18.750453 C3.5,19.6599717 4.1940361,20.4074121 5.08146332,20.4921992 L5.25,20.5002091 L6.117,20.5 L6.117,22 L5.25,22 C3.45507456,22 2,20.5451283 2,18.750453 L2,18.397 L3.5,18.397 Z M13.323,20.5 L13.323,22 L8.176,22 L8.176,20.5 L13.323,20.5 Z M19.5,18.397 L19.5,18.750453 C19.5,20.5451283 18.0449254,22 16.25,22 L15.382,22 L15.382,20.5 L16.25,20.5002091 C17.1596455,20.5002091 17.9071901,19.8062697 17.991989,18.9189662 L18,18.750453 L18,18.397 L19.5,18.397 Z M3.5,10.161 L3.5,16.338 L2,16.338 L2,10.161 L3.5,10.161 Z M19.5,10.161 L19.5,16.338 L18,16.338 L18,10.161 L19.5,10.161 Z M6.117,4.5 L6.117,5.999 L5.25,5.99979092 C4.34035453,5.99979092 3.59280988,6.69373028 3.50801101,7.58103381 L3.5,7.749547 L3.5,8.102 L2,8.102 L2,7.749547 C2,5.95487175 3.45507456,4.5 5.25,4.5 L6.117,4.5 Z M16.25,4.5 C18.0449254,4.5 19.5,5.95487175 19.5,7.749547 L19.5,8.102 L18,8.102 L18,7.749547 C18,6.84002832 17.3059639,6.09258786 16.4185367,6.00780081 L16.25,5.99979092 L15.382,5.999 L15.382,4.5 L16.25,4.5 Z M15.590287,2 C17.8190838,2 18.6272994,2.23206403 19.4421143,2.66783176 C20.2569291,3.10359949 20.8964005,3.74307093 21.3321682,4.55788574 C21.767936,5.37270056 22,6.18091615 22,8.409713 L22,14.3722296 C22,16.1552671 21.8143488,16.8018396 21.4657346,17.4536914 C21.2202776,17.9126561 20.8940321,18.3020799 20.4949174,18.6140435 C20.4981214,18.4695118 20.5,18.316606 20.5,18.1541722 L20.5,8.3458278 C20.5,6.97563815 20.3663256,6.28341544 19.9811141,5.56313259 C19.6264537,4.89997522 19.1000248,4.3735463 18.4368674,4.01888586 C17.7646034,3.65935514 17.1167829,3.51894119 15.9193798,3.50181725 L5.8458278,3.5 C5.68310622,3.5 5.5299464,3.50188529 5.38516578,3.50585327 C5.69792007,3.10596794 6.0873439,2.77972241 6.54630859,2.53426541 C7.19816044,2.18565122 7.84473292,2 9.6277704,2 L15.590287,2 Z M10.75,8.25 C11.1642136,8.25 11.5,8.58578644 11.5,9 L11.5,17.5 C11.5,17.9142136 11.1642136,18.25 10.75,18.25 C10.3357864,18.25 10,17.9142136 10,17.5 L10,14 L6.5,14 C6.08578644,14 5.75,13.6642136 5.75,13.25 C5.75,12.8357864 6.08578644,12.5 6.5,12.5 L10,12.5 L10,9 C10,8.58578644 10.3357864,8.25 10.75,8.25 Z M15,12.5 C15.4142136,12.5 15.75,12.8357864 15.75,13.25 C15.75,13.6642136 15.4142136,14 15,14 L12.5,14 L12.5,12.5 L15,12.5 Z M13.323,4.5 L13.323,5.999 L8.176,5.999 L8.176,4.5 L13.323,4.5 Z" id="形状" fill="#182431" fill-rule="nonzero"></path>
    </g>
</svg>