<?xml version="1.0" encoding="UTF-8"?>
<svg width="24px" height="24px" viewBox="0 0 24 24" version="1.1" xmlns="http://www.w3.org/2000/svg" xmlns:xlink="http://www.w3.org/1999/xlink">
    <title>编组 2@2x</title>
    <g id="页面-1" stroke="none" stroke-width="1" fill="none" fill-rule="evenodd">
        <g id="编组-2">
            <rect id="矩形" x="0" y="0" width="24" height="24"></rect>
            <g id="编组" transform="translate(2.000000, 3.000000)" fill="#000000" fill-rule="nonzero">
                <path d="M3.20724438,10.7499686 L9.17677671,16.7196699 L9.21051801,16.7556673 C9.46920131,17.0502619 9.45795421,17.4991526 9.17677671,17.7803301 C8.89559921,18.0615076 8.44670851,18.0727547 8.15211391,17.8140714 L8.11611651,17.7803301 L1.08574438,10.7499686 L3.20724438,10.7499686 Z M9.17677671,0.219669907 C9.45795421,0.500847398 9.46920131,0.949738138 9.21051801,1.24433269 L9.17677671,1.28033009 L2.20694661,8.25 L18.8964466,8.25 C19.2958668,8.25 19.6223618,8.56223 19.6451734,8.9559318 L19.6464466,9 C19.6464466,9.3994202 19.3342166,9.7259152 18.9405148,9.7487268 L18.8964466,9.75 L1,9.75 C0.734783512,9.75 0.480429602,9.6446432 0.292893222,9.4571068 C-0.0846135981,9.0796 -0.0971971581,8.4753589 0.255142542,8.0827365 L0.292893222,8.0428932 L8.11611651,0.219669907 C8.40900971,-0.0732233025 8.88388351,-0.0732233025 9.17677671,0.219669907 Z" id="path-1"></path>
            </g>
        </g>
    </g>
</svg>