<?xml version="1.0" encoding="UTF-8"?>
<svg width="14px" height="14px" viewBox="0 0 14 14" version="1.1" xmlns="http://www.w3.org/2000/svg" xmlns:xlink="http://www.w3.org/1999/xlink">
    <title>empties</title>
    <defs>
        <path d="M3.75133333,4.99966667 L4.48408601,12.3159222 C4.55929165,13.0679787 5.18140764,13.6441397 5.93232479,13.6660217 L5.97664179,13.6666667 L10.0228188,13.6666667 C10.7787932,13.6666667 11.4140821,13.1047274 11.5103791,12.3595237 L11.5154188,12.3154797 L12.1282774,6.1684922 L12.2453333,4.99966667 L13.2513333,4.99966667 L13.1232719,6.26841959 L12.5104854,12.4146884 C12.3848565,13.6747513 11.3380178,14.6387858 10.0777456,14.6660725 L10.0228188,14.6666667 L5.97664179,14.6666667 C4.71061144,14.6666667 3.64761802,13.7210386 3.495104,12.470009 L3.48904882,12.415426 L2.74633333,4.99966667 L3.75133333,4.99966667 Z M6.83333333,7.83333333 C7.10947571,7.83333333 7.33333333,8.05719096 7.33333333,8.33333333 L7.33333333,12.3333333 C7.33333333,12.6094757 7.10947571,12.8333333 6.83333333,12.8333333 C6.55719096,12.8333333 6.33333333,12.6094757 6.33333333,12.3333333 L6.33333333,8.33333333 C6.33333333,8.05719096 6.55719096,7.83333333 6.83333333,7.83333333 Z M9.16666667,7.83333333 C9.44280904,7.83333333 9.66666667,8.05719096 9.66666667,8.33333333 L9.66666667,12.3333333 C9.66666667,12.6094757 9.44280904,12.8333333 9.16666667,12.8333333 C8.89052429,12.8333333 8.66666667,12.6094757 8.66666667,12.3333333 L8.66666667,8.33333333 C8.66666667,8.05719096 8.89052429,7.83333333 9.16666667,7.83333333 Z M8,1.16666667 C9.17952243,1.16666667 10.1389047,2.10919864 10.1660749,3.28219063 L10.1666667,3.33333333 L14,3.33333333 C14.2761424,3.33333333 14.5,3.55719096 14.5,3.83333333 C14.5,4.09961348 14.2918467,4.31727681 14.0293788,4.33248455 L14,4.33333333 L9.66666667,4.33333333 C9.40038652,4.33333333 9.18272319,4.12518001 9.16751545,3.86271213 L9.16666667,3.83333333 L9.16666667,3.33333333 C9.16666667,2.68900113 8.64433221,2.16666667 8,2.16666667 C7.36909138,2.16666667 6.85515022,2.6674639 6.83400984,3.29322504 L6.83333333,3.83333333 C6.83333333,4.09961348 6.62518001,4.31727681 6.36271213,4.33248455 L6.33333333,4.33333333 L1.83333333,4.33333333 C1.55719096,4.33333333 1.33333333,4.10947571 1.33333333,3.83333333 C1.33333333,3.56705319 1.54148666,3.34938985 1.80395454,3.33418212 L1.83333333,3.33333333 L5.83333333,3.33333333 C5.83333333,2.13671638 6.80338304,1.16666667 8,1.16666667 Z" id="path-1"></path>
    </defs>
    <g id="页面-1" stroke="none" stroke-width="1" fill="none" fill-rule="evenodd">
        <g id="taskpool新" transform="translate(-291.000000, -340.000000)">
            <g id="Buttons/Small/Emphasized/Enabled备份" transform="translate(241.000000, 333.000000)">
                <g id="Public/ic_public_add" transform="translate(49.000000, 6.000000)">
                    <mask id="mask-2" fill="white">
                        <use xlink:href="#path-1"></use>
                    </mask>
                    <g id="形状结合" fill-rule="nonzero"></g>
                    <g id="编组" mask="url(#mask-2)" fill="#000000" fill-opacity="0.9">
                        <g id="Symbol/color-light/colorPrimary">
                            <rect id="color/#000000" x="0" y="0" width="16" height="16"></rect>
                        </g>
                    </g>
                </g>
            </g>
        </g>
    </g>
</svg>