<?xml version="1.0" encoding="UTF-8"?>
<svg width="14px" height="14px" viewBox="0 0 14 14" version="1.1" xmlns="http://www.w3.org/2000/svg" xmlns:xlink="http://www.w3.org/1999/xlink">
    <title>public_add</title>
    <defs>
        <path d="M8.5,14.1666667 C8.5,14.442809 8.27614237,14.6666667 8,14.6666667 C7.72385763,14.6666667 7.5,14.442809 7.5,14.1666667 L7.49933333,8.49933333 L1.83333333,8.5 C1.55719096,8.5 1.33333333,8.27614237 1.33333333,8 C1.33333333,7.72385763 1.55719096,7.5 1.83333333,7.5 L7.49933333,7.49933333 L7.5,1.83333333 C7.5,1.55719096 7.72385763,1.33333333 8,1.33333333 C8.27614237,1.33333333 8.5,1.55719096 8.5,1.83333333 L8.5,14.1666667 Z M14.1666667,7.5 C14.442809,7.5 14.6666667,7.72385763 14.6666667,8 C14.6666667,8.27614237 14.442809,8.5 14.1666667,8.5 L9.16633333,8.5 L9.16633333,7.5 L14.1666667,7.5 Z" id="path-1"></path>
    </defs>
    <g id="页面-1" stroke="none" stroke-width="1" fill="none" fill-rule="evenodd">
        <g id="taskpool新" transform="translate(-255.000000, -153.000000)">
            <g id="Buttons/Small/Emphasized/Enabled" transform="translate(241.000000, 146.000000)">
                <g id="Public/ic_public_add" transform="translate(13.000000, 6.000000)">
                    <mask id="mask-2" fill="white">
                        <use xlink:href="#path-1"></use>
                    </mask>
                    <g id="形状结合"></g>
                    <g id="编组" mask="url(#mask-2)" fill="#000000" fill-opacity="0.9">
                        <g id="Symbol/color-light/colorPrimary">
                            <rect id="color/#000000" x="0" y="0" width="16" height="16"></rect>
                        </g>
                    </g>
                </g>
            </g>
        </g>
    </g>
</svg>